# xmcd
#
# Track frame offsets:
#	183
#	18343
#	32540
#	52938
#	74868
#	99478
#	114840
#	133408
#	159195
#	171658
#	192275
#	212530
#	228493
#	249860
#
# Disc length: 3564 seconds
#
# Revision: 2
# Processed by: cddbd v1.5.1PL0 Copyright (c) Steve Scherf et al.
# Submitted via: MusicWizard 7.0.2
#
DISCID=bb0dea0e
DTITLE=Steve Earle - This Highway's Mine
DYEAR=1993
DGENRE=Countryrock
TTITLE0=I Ain't Ever Satisfied
TTITLE1=My Old Friend The Blues
TTITLE2=Copperhead Road
TTITLE3=Littls Rock 'n' Roller
TTITLE4=Back To The Wall
TTITLE5=Goodbye's All We've Got Left
TTITLE6=Fearless Heart
TTITLE7=It's All Up To You
TTITLE8=Hopeless Romantics
TTITLE9=Once You Love
TTITLE10=Nothing But A Child
TTITLE11=Snake Oil
TTITLE12=Close Your Eyes
TTITLE13=This Highway's Mine  (Roadmaster)
EXTD=(p)1986 (2,4,6,7), (p)1987 (1,8), 1990 (9,13,14) MCA Records, 1988 (3,5,10,11,12) UNI Records
EXTD=\nThis Compilation (c)1993 Pickwick Group Ltd., UK\nUPC 5020840417825, Catalogue: PWKS 4178
EXTT0=
EXTT1=
EXTT2=
EXTT3=
EXTT4=
EXTT5=
EXTT6=
EXTT7=
EXTT8=
EXTT9=
EXTT10=
EXTT11=
EXTT12=
EXTT13=
PLAYORDER=
